<svg xmlns="http://www.w3.org/2000/svg" width="430" height="430" fill="none" viewBox="0 0 430 430"><path fill="#f24c00" d="M50 80c30-15 300-15 330 0s30 255 0 270-300 15-330 0S20 95 50 80"/><path fill="#f24c00" d="M237.5 68.863C155.643 68.036 66.504 71.748 50 80c-30 15-30 255 0 270 16.504 8.252 105.645 11.964 187.501 11.137C170.564 360.46 108.496 356.748 95 350 65 335 65 95 95 80c13.496-6.748 75.563-10.46 142.5-11.137" opacity=".6" style="mix-blend-mode:multiply"/><path fill="#ebe6ef" d="M283.277 212.507c1.775 1.188 1.774 3.798 0 4.986l-106.608 71.381c-1.993 1.334-4.669-.094-4.669-2.493V143.619c0-2.399 2.676-3.827 4.669-2.493z"/><path fill="#ebe6ef" d="M202 271.913V158.087l-25.331-16.961c-1.993-1.334-4.669.094-4.669 2.493v142.762c0 2.399 2.676 3.827 4.669 2.493z" opacity=".5" style="mix-blend-mode:multiply"/></svg>