<svg xmlns="http://www.w3.org/2000/svg" width="430" height="430" fill="none" viewBox="0 0 430 430"><circle cx="215" cy="215" r="167.5" fill="#4bb3fd"/><path fill="#4bb3fd" d="M298.007 360.519c-15.208 4.542-31.323 6.981-48.007 6.981-92.508 0-167.5-74.992-167.5-167.5 0-62.305 34.018-116.664 84.493-145.519C97.881 75.121 47.5 139.177 47.5 215c0 92.508 74.992 167.5 167.5 167.5 30.203 0 58.538-7.993 83.007-21.981" opacity=".5" style="mix-blend-mode:multiply"/><mask id="1tQQZOMMRea" width="311" height="311" x="59" y="59" maskUnits="userSpaceOnUse" style="mask-type:alpha"><circle cx="214.5" cy="214.5" r="155" fill="#fff"/></mask><g fill="#ebe6ef" mask="url(#1tQQZOMMRea)"><path d="M300.581 144.969A34.84 34.84 0 0 1 295 126c0-19.33 15.67-35 35-35 17.349 0 31.75 12.623 34.519 29.186C368.835 146 367.264 169 358.569 193 328.5 276 280 410 280 410l-62.5-172.619L155 410 57.241 140H38a3 3 0 0 1-3-3v-19a3 3 0 0 1 3-3h94a3 3 0 0 1 3 3v19a3 3 0 0 1-3 3h-22.517l56.638 165.238L202.5 204.762 182.241 140H163a3 3 0 0 1-3-3v-19a3 3 0 0 1 3-3h94a3 3 0 0 1 3 3v19a3 3 0 0 1-3 3h-22.517l56.638 165.238S315.382 239.287 321.5 219c7.975-26.444-.545-42.251-13.669-62.448-2.509-3.861-5.004-7.7-7.331-11.552z"/><path d="M295 126a34.84 34.84 0 0 0 5.581 18.969l-.081.031c2.327 3.852 4.822 7.691 7.331 11.552a355 355 0 0 1 3.38 5.289C315.237 146.953 328.839 136 345 136c8.243 0 15.821 2.85 21.802 7.618-.164-7.614-.938-15.386-2.283-23.432C361.75 103.623 347.349 91 330 91c-19.33 0-35 15.67-35 35m-112.759 14H163a3 3 0 0 1-3-3v-19a3 3 0 0 1 3-3h19.241zM280 410l9.999-27.623L202.241 140h-20l20.259 64.762 15 32.619zm-115-27.619L77.241 140h-20L155 410zM55 140v-25H35v25z" opacity=".5" style="mix-blend-mode:multiply"/></g><circle cx="214.75" cy="215" r="155" stroke="#ebe6ef" stroke-width="10"/></svg>