<svg xmlns="http://www.w3.org/2000/svg" width="430" height="430" fill="none" viewBox="0 0 430 430"><path fill="#4bb3fd" d="M46.41 145h74.999v225h-75z"/><path fill="#4bb3fd" d="M81.41 145h-35v225h35z" opacity=".4" style="mix-blend-mode:multiply"/><path fill="#4bb3fd" d="M392.977 219.301V370h-73.265V245.617c0-22.825-18.452-41.329-41.212-41.329s-41.212 18.504-41.212 41.329V370h-73.266V146.54h73.266v30.196l21.724-17.428A87.7 87.7 0 0 1 313.9 140c43.673 0 79.077 35.504 79.077 79.301"/><path fill="#4bb3fd" d="M354.712 370V245.617c0-22.825-18.452-41.329-41.212-41.329a41 41 0 0 0-17.5 3.901c14.011 6.599 23.712 20.877 23.712 37.428V370zm-155.69-223.46h-35V370h35z" opacity=".5" style="mix-blend-mode:multiply"/><circle cx="83.5" cy="70" r="40" fill="#4bb3fd"/><path fill="#4bb3fd" d="M109.989 99.973q-.74.027-1.489.027c-22.091 0-40-17.909-40-40 0-11.932 5.225-22.644 13.511-29.973C60.61 30.81 43.5 48.407 43.5 70c0 22.091 17.909 40 40 40a39.85 39.85 0 0 0 26.489-10.027" opacity=".5" style="mix-blend-mode:multiply"/><path stroke="#121331" stroke-linejoin="round" stroke-width="3.5" d="M46.41 145h74.999v225h-75zm346.567 74.301V370h-73.265V245.617c0-22.825-18.452-41.329-41.212-41.329s-41.212 18.504-41.212 41.329V370h-73.266V146.54h73.266v30.196l21.724-17.428A87.7 87.7 0 0 1 313.9 140c43.673 0 79.077 35.504 79.077 79.301Z"/><circle cx="83.5" cy="70" r="40" stroke="#121331" stroke-linejoin="round" stroke-width="3.5"/></svg>